<mxfile host="drawio-plugin" modified="2022-07-24T17:56:23.508Z" agent="5.0 (Windows NT 6.2; Win64; x64) AppleWebKit/537.36 (KHTML, like Gecko) Chrome/97.0.4692.45 Safari/537.36" etag="g-mfaRmRGKBwdIVt8D3l" version="15.5.4" type="embed"><diagram id="xk0LYboaFIT9QmwzVqD-" name="Page-1"><mxGraphModel dx="1371" dy="898" grid="0" gridSize="10" guides="1" tooltips="1" connect="1" arrows="1" fold="1" page="0" pageScale="1" pageWidth="827" pageHeight="1169" background="#282A36" math="0" shadow="0"><root><mxCell id="0"/><mxCell id="1" parent="0"/><mxCell id="17" value="" style="rounded=0;whiteSpace=wrap;html=1;strokeColor=#50FA7B;strokeWidth=3;fillColor=#2E303D;fontColor=#F8F8F2;" parent="1" vertex="1"><mxGeometry x="-394" y="103" width="814" height="173" as="geometry"/></mxCell><mxCell id="18" style="edgeStyle=orthogonalEdgeStyle;rounded=0;orthogonalLoop=1;jettySize=auto;html=1;exitX=0;exitY=0.5;exitDx=0;exitDy=0;entryX=1;entryY=0.5;entryDx=0;entryDy=0;fontSize=13;fontColor=#F8F8F2;strokeWidth=2;strokeColor=#BD93F9;" parent="1" source="20" target="22" edge="1"><mxGeometry relative="1" as="geometry"/></mxCell><mxCell id="19" style="edgeStyle=orthogonalEdgeStyle;rounded=0;orthogonalLoop=1;jettySize=auto;html=1;exitX=1;exitY=0.5;exitDx=0;exitDy=0;entryX=0;entryY=0.5;entryDx=0;entryDy=0;strokeColor=#BD93F9;strokeWidth=2;fontSize=13;fontColor=#F8F8F2;" parent="1" source="20" target="23" edge="1"><mxGeometry relative="1" as="geometry"/></mxCell><mxCell id="20" value="FacebookAuthentication" style="rounded=1;whiteSpace=wrap;html=1;strokeColor=#BD93F9;fillColor=#2E303D;strokeWidth=3;fontColor=#F8F8F2;" parent="1" vertex="1"><mxGeometry x="-59.5" y="159.5" width="154" height="60" as="geometry"/></mxCell><mxCell id="21" value="Data" style="text;html=1;resizable=0;points=[];autosize=1;align=right;verticalAlign=bottom;spacingTop=-4;fontColor=#F8F8F2;fontSize=13;" parent="1" vertex="1"><mxGeometry x="382" y="80.5" width="37" height="16" as="geometry"/></mxCell><mxCell id="22" value="AccessToken" style="rounded=1;whiteSpace=wrap;html=1;strokeColor=#FF79C6;fillColor=#2E303D;strokeWidth=3;fontColor=#F8F8F2;" parent="1" vertex="1"><mxGeometry x="-205" y="159.5" width="104" height="60" as="geometry"/></mxCell><mxCell id="23" value="AuthenticationError" style="rounded=1;whiteSpace=wrap;html=1;strokeColor=#FF79C6;fillColor=#2E303D;strokeWidth=3;fontColor=#F8F8F2;" parent="1" vertex="1"><mxGeometry x="136" y="159.5" width="122" height="60" as="geometry"/></mxCell><mxCell id="42" value="UserAccount" style="rounded=1;whiteSpace=wrap;html=1;strokeColor=#FF79C6;fillColor=#2E303D;strokeWidth=3;fontColor=#F8F8F2;" parent="1" vertex="1"><mxGeometry x="-350.5" y="159.5" width="104" height="60" as="geometry"/></mxCell><mxCell id="69" value="" style="rounded=0;whiteSpace=wrap;html=1;strokeColor=#ae4132;strokeWidth=3;fillColor=#fad9d5;fontSize=13;align=right;" parent="1" vertex="1"><mxGeometry x="-394" y="-136.5" width="20" height="20" as="geometry"/></mxCell><mxCell id="70" value="Model" style="text;html=1;resizable=0;points=[];autosize=1;align=left;verticalAlign=middle;spacingTop=-4;fontSize=13;fontColor=#F8F8F2;" parent="1" vertex="1"><mxGeometry x="-372" y="-134.5" width="45" height="16" as="geometry"/></mxCell><mxCell id="71" value="" style="rounded=0;whiteSpace=wrap;html=1;strokeColor=#9673a6;strokeWidth=3;fillColor=#e1d5e7;fontSize=13;align=right;" parent="1" vertex="1"><mxGeometry x="-394" y="-107.5" width="20" height="20" as="geometry"/></mxCell><mxCell id="72" value="Interface" style="text;html=1;resizable=0;points=[];autosize=1;align=left;verticalAlign=middle;spacingTop=-4;fontSize=13;fontColor=#F8F8F2;" parent="1" vertex="1"><mxGeometry x="-372" y="-105.5" width="61" height="16" as="geometry"/></mxCell><mxCell id="73" value="" style="rounded=0;whiteSpace=wrap;html=1;strokeColor=#6c8ebf;strokeWidth=3;fillColor=#dae8fc;fontSize=13;align=right;" parent="1" vertex="1"><mxGeometry x="-394" y="-76.5" width="20" height="20" as="geometry"/></mxCell><mxCell id="74" value="Class" style="text;html=1;resizable=0;points=[];autosize=1;align=left;verticalAlign=middle;spacingTop=-4;fontSize=13;fontColor=#F8F8F2;" parent="1" vertex="1"><mxGeometry x="-372" y="-74.5" width="43" height="16" as="geometry"/></mxCell><mxCell id="75" value="" style="rounded=0;whiteSpace=wrap;html=1;strokeColor=#50FA7B;strokeWidth=3;fillColor=none;fontSize=13;fontColor=#F8F8F2;align=right;" parent="1" vertex="1"><mxGeometry x="-394" y="-165.5" width="20" height="20" as="geometry"/></mxCell><mxCell id="76" value="Layer" style="text;html=1;resizable=0;points=[];autosize=1;align=left;verticalAlign=middle;spacingTop=-4;fontSize=13;fontColor=#F8F8F2;" parent="1" vertex="1"><mxGeometry x="-372" y="-163.5" width="43" height="16" as="geometry"/></mxCell><mxCell id="77" value="" style="rounded=0;whiteSpace=wrap;html=1;strokeColor=#50FA7B;strokeWidth=3;fillColor=#2E303D;fontColor=#F8F8F2;" parent="1" vertex="1"><mxGeometry x="-394" y="47" width="814" height="229" as="geometry"/></mxCell><mxCell id="135" style="edgeStyle=orthogonalEdgeStyle;rounded=0;orthogonalLoop=1;jettySize=auto;html=1;exitX=0;exitY=0.25;exitDx=0;exitDy=0;entryX=0.5;entryY=1;entryDx=0;entryDy=0;strokeColor=#8BE9FD;strokeWidth=3;" parent="1" source="80" target="134" edge="1"><mxGeometry relative="1" as="geometry"/></mxCell><mxCell id="136" style="edgeStyle=orthogonalEdgeStyle;rounded=0;orthogonalLoop=1;jettySize=auto;html=1;exitX=0.25;exitY=0;exitDx=0;exitDy=0;entryX=0.5;entryY=1;entryDx=0;entryDy=0;strokeColor=#8BE9FD;strokeWidth=3;" parent="1" source="80" target="131" edge="1"><mxGeometry relative="1" as="geometry"/></mxCell><mxCell id="137" style="edgeStyle=orthogonalEdgeStyle;rounded=0;orthogonalLoop=1;jettySize=auto;html=1;exitX=1;exitY=0.5;exitDx=0;exitDy=0;entryX=0;entryY=0.5;entryDx=0;entryDy=0;strokeColor=#8BE9FD;strokeWidth=3;" parent="1" source="131" target="132" edge="1"><mxGeometry relative="1" as="geometry"/></mxCell><mxCell id="138" style="edgeStyle=orthogonalEdgeStyle;rounded=0;orthogonalLoop=1;jettySize=auto;html=1;exitX=1;exitY=0.5;exitDx=0;exitDy=0;entryX=0;entryY=0.5;entryDx=0;entryDy=0;strokeColor=#8BE9FD;strokeWidth=3;" parent="1" source="132" target="133" edge="1"><mxGeometry relative="1" as="geometry"/></mxCell><mxCell id="80" value="FacebookAuthService" style="rounded=1;whiteSpace=wrap;html=1;strokeColor=#6c8ebf;fillColor=#dae8fc;strokeWidth=3;fontStyle=1" parent="1" vertex="1"><mxGeometry x="-95.5" y="206" width="190" height="60" as="geometry"/></mxCell><mxCell id="113" value="" style="rounded=0;whiteSpace=wrap;html=1;strokeColor=none;strokeWidth=3;fillColor=#FF5555;fontSize=13;fontColor=#F8F8F2;align=right;" parent="1" vertex="1"><mxGeometry x="-394" y="-45.5" width="20" height="20" as="geometry"/></mxCell><mxCell id="114" value="External Lib" style="text;html=1;resizable=0;points=[];autosize=1;align=left;verticalAlign=middle;spacingTop=-4;fontSize=13;fontColor=#F8F8F2;" parent="1" vertex="1"><mxGeometry x="-372" y="-43.5" width="79" height="16" as="geometry"/></mxCell><mxCell id="115" value="" style="rounded=0;whiteSpace=wrap;html=1;strokeColor=#50FA7B;strokeWidth=3;fillColor=#2E303D;fontColor=#F8F8F2;" parent="1" vertex="1"><mxGeometry x="-394" y="340" width="814" height="173" as="geometry"/></mxCell><mxCell id="116" style="edgeStyle=orthogonalEdgeStyle;rounded=0;orthogonalLoop=1;jettySize=auto;html=1;exitX=0;exitY=0.5;exitDx=0;exitDy=0;entryX=1;entryY=0.5;entryDx=0;entryDy=0;fontSize=13;fontColor=#F8F8F2;strokeWidth=2;strokeColor=#BD93F9;" parent="1" source="118" target="120" edge="1"><mxGeometry relative="1" as="geometry"/></mxCell><mxCell id="117" style="edgeStyle=orthogonalEdgeStyle;rounded=0;orthogonalLoop=1;jettySize=auto;html=1;exitX=1;exitY=0.5;exitDx=0;exitDy=0;entryX=0;entryY=0.5;entryDx=0;entryDy=0;strokeColor=#BD93F9;strokeWidth=2;fontSize=13;fontColor=#F8F8F2;" parent="1" source="118" target="121" edge="1"><mxGeometry relative="1" as="geometry"/></mxCell><mxCell id="118" value="FacebookAuthentication" style="rounded=1;whiteSpace=wrap;html=1;strokeColor=#BD93F9;fillColor=#2E303D;strokeWidth=3;fontColor=#F8F8F2;" parent="1" vertex="1"><mxGeometry x="-59.5" y="396.5" width="154" height="60" as="geometry"/></mxCell><mxCell id="119" value="Domain" style="text;html=1;resizable=0;points=[];autosize=1;align=right;verticalAlign=bottom;spacingTop=-4;fontColor=#F8F8F2;fontSize=13;" parent="1" vertex="1"><mxGeometry x="368" y="319.5" width="51" height="14" as="geometry"/></mxCell><mxCell id="120" value="AccessToken" style="rounded=1;whiteSpace=wrap;html=1;strokeColor=#FF79C6;fillColor=#2E303D;strokeWidth=3;fontColor=#F8F8F2;" parent="1" vertex="1"><mxGeometry x="-205" y="396.5" width="104" height="60" as="geometry"/></mxCell><mxCell id="121" value="AuthenticationError" style="rounded=1;whiteSpace=wrap;html=1;strokeColor=#FF79C6;fillColor=#2E303D;strokeWidth=3;fontColor=#F8F8F2;" parent="1" vertex="1"><mxGeometry x="136" y="396.5" width="122" height="60" as="geometry"/></mxCell><mxCell id="122" value="UserAccount" style="rounded=1;whiteSpace=wrap;html=1;strokeColor=#FF79C6;fillColor=#2E303D;strokeWidth=3;fontColor=#F8F8F2;" parent="1" vertex="1"><mxGeometry x="-350.5" y="396.5" width="104" height="60" as="geometry"/></mxCell><mxCell id="123" value="" style="rounded=0;whiteSpace=wrap;html=1;strokeColor=#50FA7B;strokeWidth=3;fillColor=#2E303D;fontColor=#F8F8F2;" parent="1" vertex="1"><mxGeometry x="-394" y="340" width="814" height="173" as="geometry"/></mxCell><mxCell id="124" style="edgeStyle=orthogonalEdgeStyle;rounded=0;orthogonalLoop=1;jettySize=auto;html=1;exitX=0;exitY=0.5;exitDx=0;exitDy=0;entryX=1;entryY=0.5;entryDx=0;entryDy=0;fontSize=13;fontColor=#F8F8F2;strokeWidth=2;strokeColor=#BD93F9;" parent="1" source="126" target="128" edge="1"><mxGeometry relative="1" as="geometry"/></mxCell><mxCell id="125" style="edgeStyle=orthogonalEdgeStyle;rounded=0;orthogonalLoop=1;jettySize=auto;html=1;exitX=1;exitY=0.5;exitDx=0;exitDy=0;entryX=0;entryY=0.5;entryDx=0;entryDy=0;strokeColor=#BD93F9;strokeWidth=2;fontSize=13;fontColor=#F8F8F2;" parent="1" source="126" target="129" edge="1"><mxGeometry relative="1" as="geometry"/></mxCell><mxCell id="126" value="FacebookAuthentication" style="rounded=1;whiteSpace=wrap;html=1;strokeColor=#9673a6;fillColor=#e1d5e7;strokeWidth=3;" parent="1" vertex="1"><mxGeometry x="18" y="396.5" width="154" height="60" as="geometry"/></mxCell><mxCell id="128" value="AccessToken" style="rounded=1;whiteSpace=wrap;html=1;strokeColor=#ae4132;fillColor=#fad9d5;strokeWidth=3;" parent="1" vertex="1"><mxGeometry x="-205" y="396.5" width="104" height="60" as="geometry"/></mxCell><mxCell id="129" value="AuthenticationError" style="rounded=1;whiteSpace=wrap;html=1;strokeColor=#ae4132;fillColor=#fad9d5;strokeWidth=3;" parent="1" vertex="1"><mxGeometry x="276" y="396.5" width="122" height="60" as="geometry"/></mxCell><mxCell id="130" style="edgeStyle=orthogonalEdgeStyle;rounded=0;orthogonalLoop=1;jettySize=auto;html=1;exitX=1;exitY=1;exitDx=0;exitDy=0;entryX=0.5;entryY=0;entryDx=0;entryDy=0;strokeWidth=3;strokeColor=#8BE9FD;dashed=1;dashPattern=1 1;" parent="1" source="80" target="126" edge="1"><mxGeometry relative="1" as="geometry"/></mxCell><mxCell id="131" value="FacebookApi" style="rounded=1;whiteSpace=wrap;html=1;strokeColor=#9673a6;fillColor=#e1d5e7;strokeWidth=3;" parent="1" vertex="1"><mxGeometry x="-212" y="93" width="144" height="60" as="geometry"/></mxCell><mxCell id="132" value="UserRepository" style="rounded=1;whiteSpace=wrap;html=1;strokeColor=#9673a6;fillColor=#e1d5e7;strokeWidth=3;" parent="1" vertex="1"><mxGeometry x="1" y="93" width="144" height="60" as="geometry"/></mxCell><mxCell id="133" value="Save User" style="rounded=1;whiteSpace=wrap;html=1;strokeColor=#2D7600;fillColor=#60a917;strokeWidth=3;fontColor=#ffffff;" parent="1" vertex="1"><mxGeometry x="225" y="129.5" width="173" height="60" as="geometry"/></mxCell><mxCell id="134" value="TokenService" style="rounded=1;whiteSpace=wrap;html=1;strokeColor=#9673a6;fillColor=#e1d5e7;strokeWidth=3;" parent="1" vertex="1"><mxGeometry x="-388" y="94" width="144" height="59" as="geometry"/></mxCell><mxCell id="139" style="edgeStyle=orthogonalEdgeStyle;rounded=0;orthogonalLoop=1;jettySize=auto;html=1;exitX=0;exitY=0.75;exitDx=0;exitDy=0;entryX=0.5;entryY=0;entryDx=0;entryDy=0;strokeColor=#8BE9FD;strokeWidth=3;" parent="1" source="80" target="128" edge="1"><mxGeometry relative="1" as="geometry"/></mxCell><mxCell id="140" style="edgeStyle=orthogonalEdgeStyle;rounded=0;orthogonalLoop=1;jettySize=auto;html=1;exitX=1;exitY=0.5;exitDx=0;exitDy=0;entryX=0.5;entryY=0;entryDx=0;entryDy=0;strokeColor=#8BE9FD;strokeWidth=3;" parent="1" source="80" target="129" edge="1"><mxGeometry relative="1" as="geometry"/></mxCell><mxCell id="141" value="FacebookAccount" style="rounded=1;whiteSpace=wrap;html=1;strokeColor=#ae4132;fillColor=#fad9d5;strokeWidth=3;" parent="1" vertex="1"><mxGeometry x="-372" y="396.5" width="112" height="60" as="geometry"/></mxCell><mxCell id="142" style="edgeStyle=orthogonalEdgeStyle;rounded=0;orthogonalLoop=1;jettySize=auto;html=1;exitX=0;exitY=0.5;exitDx=0;exitDy=0;entryX=0.5;entryY=0;entryDx=0;entryDy=0;strokeColor=#8BE9FD;strokeWidth=3;" parent="1" source="80" target="141" edge="1"><mxGeometry relative="1" as="geometry"/></mxCell><mxCell id="143" value="Data" style="text;html=1;resizable=0;points=[];autosize=1;align=right;verticalAlign=bottom;spacingTop=-4;fontColor=#F8F8F2;fontSize=13;" parent="1" vertex="1"><mxGeometry x="383" y="23.5" width="37" height="16" as="geometry"/></mxCell><mxCell id="154" value="Load User" style="rounded=1;whiteSpace=wrap;html=1;strokeColor=#2D7600;fillColor=#60a917;strokeWidth=3;fontColor=#ffffff;" vertex="1" parent="1"><mxGeometry x="225" y="58.5" width="173" height="60" as="geometry"/></mxCell><mxCell id="155" style="edgeStyle=orthogonalEdgeStyle;rounded=0;orthogonalLoop=1;jettySize=auto;html=1;exitX=1;exitY=0.5;exitDx=0;exitDy=0;entryX=0;entryY=0.5;entryDx=0;entryDy=0;strokeColor=#8BE9FD;strokeWidth=3;" edge="1" parent="1" source="132" target="154"><mxGeometry relative="1" as="geometry"><mxPoint x="184" y="121" as="sourcePoint"/><mxPoint x="235" y="208" as="targetPoint"/></mxGeometry></mxCell><mxCell id="158" value="" style="rounded=0;whiteSpace=wrap;html=1;strokeColor=#2D7600;strokeWidth=3;fillColor=#60a917;fontSize=13;fontColor=#ffffff;align=right;" vertex="1" parent="1"><mxGeometry x="-394" y="-19.5" width="20" height="20" as="geometry"/></mxCell><mxCell id="159" value="Method" style="text;html=1;resizable=0;points=[];autosize=1;align=left;verticalAlign=middle;spacingTop=-4;fontSize=13;fontColor=#F8F8F2;" vertex="1" parent="1"><mxGeometry x="-372" y="-17.5" width="53" height="16" as="geometry"/></mxCell></root></mxGraphModel></diagram></mxfile>